<svg width="1557" height="1551" viewBox="0 0 1557 1551" fill="none" xmlns="http://www.w3.org/2000/svg">
<path fill-rule="evenodd" clip-rule="evenodd" d="M1231.99 1405.91C1104.29 1497.23 947.698 1551 778.5 1551C636.655 1551 503.671 1513.21 389.139 1447.19C373.026 1438.24 357.137 1428.82 341.967 1418.42C339.707 1416.89 337.425 1415.38 335.143 1413.88L334.706 1413.59C319.362 1403.45 304.632 1392.64 290.213 1381.23L287.315 1378.95C281.636 1374.46 276.104 1369.8 270.592 1365.1C268.318 1363.16 266.034 1361.24 263.741 1359.33C258.616 1355.04 253.562 1350.77 248.931 1345.95C247.188 1344.2 245.379 1342.6 243.51 1340.99C239.345 1337.37 235.295 1333.64 231.276 1329.85L229.178 1327.88C219.833 1319.07 217.448 1316.81 215.841 1315.08C214.295 1313.57 212.85 1312.06 211 1310L211.008 1310C210.647 1309.6 210.27 1309.15 209.47 1308.18L209.466 1308.17L209.465 1308.17L209.463 1308.17C205.888 1303.95 202.134 1299.93 198.338 1295.92C193.423 1290.69 188.768 1285.38 184.291 1279.78C182.156 1277.16 179.928 1274.66 177.651 1272.17C173.277 1267.35 169.218 1262.35 165.213 1257.23L163.788 1255.43L162.022 1253.19C154.557 1243.72 147.411 1234.08 140.548 1224.16C139.31 1222.37 138.066 1220.59 136.819 1218.8C134.601 1215.62 132.402 1212.43 130.213 1209.23L129.068 1207.56C98.4032 1162.57 74.2152 1113.87 53.5953 1063.59C51.8511 1059.35 50.0731 1055.13 48.2896 1050.9C46.7945 1047.19 45.538 1043.42 44.3069 1039.61C43.4911 1037.09 42.6583 1034.58 41.8069 1032.07C39.0387 1023.9 36.4229 1015.71 34.0398 1007.42C32.6995 1002.78 31.2187 998.228 29.6507 993.667C19.7438 964.365 14.5089 932.8 9.55497 902.328C9.2141 900.236 8.8682 898.144 8.52177 896.053C4.93885 874.284 2.72236 852.499 1.35423 830.48C1.262 829.009 1.16626 827.537 1.06657 826.066C0.0836901 811.407 0.0276114 796.733 0.0271923 782.05C0.00907592 779.869 0 777.686 0 775.5C0 773.816 0.00538549 772.134 0.0161402 770.453C0.0136177 769.688 0.0106912 768.922 0.0073623 768.156C-0.112756 740.025 1.2343 712.255 4.52567 684.292L4.84892 681.493C6.79943 664.65 9.18497 647.916 12.2132 631.23L12.6193 628.963C15.0189 615.641 17.9185 602.477 21.1048 589.322C21.8499 586.244 22.5867 583.164 23.3225 580.083C23.7986 578.102 24.2752 576.121 24.7522 574.14L25.4121 571.385C26.4971 566.918 27.6999 562.574 29.2132 558.23C30.0037 555.719 30.789 553.206 31.5686 550.691L31.5698 550.687L31.57 550.687C40.3156 522.59 40.3158 522.59 44.1507 511.667L44.9307 509.444C46.8811 503.981 49.0414 498.608 51.2132 493.23L52.5869 489.777L53.5179 487.437C62.7058 464.501 72.3388 441.645 84.2679 419.983C85.6731 417.377 86.9729 414.721 88.2738 412.062L88.274 412.062L88.6507 411.292C99.8903 388.711 113.339 367.27 127.213 346.23L128.493 344.279C137.104 331.163 146.141 318.433 155.791 306.058C157.355 304.047 158.909 302.03 160.463 300.011C189.417 262.475 189.417 262.475 202.528 249.916C204.259 248.184 205.845 246.38 207.436 244.519C211.075 240.335 214.908 236.39 218.834 232.476L220.966 230.341C222.443 228.863 223.922 227.387 225.401 225.912C227.645 223.673 229.883 221.429 232.121 219.185L233.421 217.886L234.541 216.767C235.18 216.128 235.82 215.49 236.459 214.851L238.455 212.849C242.325 208.998 246.303 205.326 250.441 201.764C252.84 199.688 255.155 197.53 257.475 195.368L257.477 195.366L258.026 194.855C263.57 189.74 269.321 184.941 275.213 180.23C276.367 179.296 277.521 178.361 278.674 177.425C287.003 170.69 295.481 164.181 304.09 157.807C306.268 156.189 308.436 154.558 310.604 152.925C334.888 134.719 360.443 118.29 387.186 103.945C391.369 101.7 395.486 99.3687 399.588 96.98C421.496 84.3834 444.869 73.6441 468.313 64.0018C550.048 28.5934 639.073 6.75151 732.524 1.32996C747.313 0.391857 762.073 -0.031133 776.814 0.00177924C777.376 0.000593278 777.938 0 778.5 0C911.215 0 1036.17 33.0812 1145.52 91.4173C1158.07 97.848 1170.32 104.762 1182.46 111.98L1184.17 112.994C1199.96 122.38 1215.59 132.012 1230.4 142.902C1232.46 144.409 1234.53 145.897 1236.61 147.382C1260.38 164.41 1283.19 182.62 1304.45 202.71C1307.13 205.238 1309.86 207.685 1312.62 210.121C1319.04 215.881 1325.13 221.986 1331.21 228.094L1331.21 228.095L1331.22 228.098L1331.27 228.152C1331.74 228.624 1332.21 229.097 1332.68 229.569C1334.9 231.795 1337.13 234.016 1339.36 236.236C1340.79 237.672 1342.23 239.109 1343.66 240.546L1345.65 242.523C1349.48 246.375 1353.13 250.337 1356.68 254.455C1358.76 256.859 1360.92 259.18 1363.09 261.506L1363.59 262.042C1367.86 266.67 1371.91 271.434 1375.85 276.347C1377.52 278.388 1379.21 280.384 1380.95 282.363C1388.68 291.162 1395.63 300.406 1402.5 309.886C1404.65 312.832 1406.85 315.742 1409.06 318.65C1414.38 325.674 1419.44 332.81 1424.21 340.23L1425.83 342.746C1427.5 345.355 1429.16 347.974 1430.81 350.593L1430.81 350.595L1430.81 350.598L1430.82 350.6L1430.82 350.602L1430.82 350.605L1430.82 350.607L1431.21 351.23C1432.13 352.669 1433.05 354.108 1433.97 355.546C1444.96 372.804 1455.07 390.402 1464.72 408.444C1466.02 410.878 1467.34 413.307 1468.65 415.734C1482.82 441.958 1495.09 469.434 1505.45 497.406C1512.44 515.536 1518.77 533.994 1524.41 552.751C1533.23 580.376 1540.52 609.3 1544.81 638.062C1552.82 682.669 1557 728.598 1557 775.5C1557 886.957 1533.4 992.922 1490.9 1088.7C1488.1 1095.25 1485.22 1101.76 1482.21 1108.23L1480.94 1110.98C1474.25 1125.39 1466.97 1139.37 1459.21 1153.23L1456.02 1158.98C1440.03 1187.69 1422.03 1215.01 1402.21 1241.23L1400.85 1243.04C1390.63 1256.6 1379.8 1269.68 1368.69 1282.52C1367.21 1284.23 1365.75 1285.96 1364.29 1287.69C1353.22 1300.78 1341.44 1313.09 1329.34 1325.23L1327.85 1326.73C1322.71 1331.89 1317.53 1336.95 1312 1341.69C1309.52 1343.83 1307.14 1346.06 1304.76 1348.3L1304.76 1348.3L1303.9 1349.1C1299.11 1353.56 1294.19 1357.79 1289.08 1361.89C1286.39 1364.09 1283.75 1366.34 1281.12 1368.62C1274.03 1374.77 1266.74 1380.61 1259.21 1386.23L1257.05 1387.85C1248.79 1394.02 1240.46 1400.05 1231.99 1405.91ZM761.74 136.496C767.45 135.988 773.144 135.442 778.803 134.507C803.548 130.333 828.669 129.897 853.709 129.962C857.449 129.974 861.188 129.98 864.927 129.969C880.067 129.923 895.125 129.88 910.179 131.722C912.67 132.04 915.147 132.32 917.647 132.562C928.589 133.527 939.45 134.881 950.296 136.456C1023.11 149.557 1068.37 165.952 1136.27 199.202C1149.35 206.466 1162.11 214.308 1174.51 222.707C1176.39 223.988 1178.27 225.268 1180.16 226.541C1193.71 235.681 1206.92 245.163 1219.25 255.919C1221.67 258.041 1224.13 260.11 1226.62 262.147C1243.71 276.824 1256.4 288.377 1273.03 305.838C1275.01 308.334 1277.26 311.156 1279.88 314.402C1281.76 316.569 1283.66 318.719 1285.58 320.847C1289.16 324.759 1292.66 328.707 1295.96 332.855L1295.97 332.865L1295.98 332.87L1295.98 332.874C1297.84 335.243 1299.7 337.611 1301.62 339.94C1309.08 348.947 1316.17 358.119 1322.95 367.648C1324.59 369.951 1326.23 372.25 1327.89 374.537C1348.36 402.611 1366.35 431.824 1381.65 463.04L1383.21 466.23C1385.06 469.992 1386.9 473.756 1388.73 477.524L1390.59 481.355C1394.33 489.025 1397.93 496.712 1401.15 504.612C1401.78 506.16 1402.41 507.707 1403.05 509.25C1406.24 516.929 1409.12 524.686 1411.84 532.542L1412.27 533.8L1412.27 533.804L1412.27 533.808L1412.28 533.812L1412.28 533.816L1412.28 533.82L1412.28 533.824L1412.28 533.828L1412.28 533.832C1413.59 537.631 1414.9 541.424 1416.37 545.164C1418.96 551.349 1420.98 557.654 1422.94 564.062C1423.36 565.452 1423.78 566.842 1424.21 568.23C1431.93 591.934 1437.5 616.121 1442.46 640.528L1443.21 644.23C1448.03 667.739 1450.85 691.33 1452.87 715.23C1452.98 716.564 1453.1 717.897 1453.21 719.23C1454.98 738.386 1455.38 757.401 1455.4 776.631L1455.4 780.605C1455.4 784.451 1455.4 788.298 1455.39 792.144L1455.38 795.753L1455.38 796.341C1455.38 801.93 1455.37 807.478 1454.73 813.039C1454.39 815.714 1454.14 818.331 1453.95 821.027C1453.89 822.017 1453.84 823.006 1453.79 823.996C1453.74 824.941 1453.69 825.886 1453.63 826.831C1453.51 828.985 1453.39 831.139 1453.28 833.292C1452.73 843.677 1451.9 853.94 1450.49 864.244C1450.3 865.567 1450.12 866.891 1449.95 868.215C1447.38 887.405 1444.25 906.385 1440.08 925.301C1439.46 928.104 1438.85 930.908 1438.25 933.713C1437.56 936.89 1436.88 940.066 1436.19 943.24L1435.44 946.631L1435.15 947.98C1433.39 956.149 1431.55 964.283 1429.3 972.336L1428.65 974.621C1427.94 977.226 1427.15 979.684 1426.21 982.23C1424.47 984.854 1423.57 985.15 1420.47 985.843L1417.12 986.187L1413.35 986.611C1394.62 988.583 1376.44 992.161 1358.16 996.73C1355.22 997.475 1352.27 998.215 1349.32 998.929C1322.59 1005.36 1296.44 1013.99 1270.96 1024.29C1269.38 1024.94 1267.8 1025.59 1266.21 1026.23L1266.2 1026.23C1263.37 1027.31 1261.42 1028.05 1259.49 1028.84C1255.25 1030.58 1251.12 1032.57 1237.9 1038.92C1235.45 1040.1 1233 1041.27 1230.55 1042.44L1228.22 1043.55L1227.91 1043.71C1223.73 1045.73 1219.89 1047.6 1215.21 1048.23C1209.67 1023.66 1189.81 1001.73 1169.04 988.498C1147.51 975.559 1121.14 970.176 1096.44 975.697L1094.21 976.23C1075.66 980.44 1057.3 989.908 1044.2 1003.94L1042.21 1006.23C1026.72 1024.11 1017.55 1044.69 1012.53 1067.73L1012.38 1068.41L1012.24 1069.06C1010.96 1075.01 1009.7 1080.87 1007.42 1086.55L1006.21 1089.23C1001.64 1099.46 996.298 1108.72 989.47 1117.61L988.213 1119.23C987.802 1119.76 987.394 1120.3 986.985 1120.83L986.963 1120.86C983.858 1124.92 980.761 1128.96 976.791 1132.21C975.561 1133.18 974.918 1133.68 974.296 1134.21C973.621 1134.78 972.972 1135.39 971.622 1136.65L971.615 1136.65L971.609 1136.66L971.596 1136.67L971.594 1136.67L971.592 1136.68C964.784 1143.15 957.722 1148.84 949.926 1154.09L948.213 1155.23C938.832 1161.52 929.031 1166.56 918.718 1171.13L916.213 1172.23C904.663 1177.33 892.912 1181.05 880.674 1184.08L878.526 1184.6C860.978 1189 843.813 1190.59 825.734 1190.55L822.963 1190.54C808.986 1190.52 795.188 1190.42 781.427 1187.68L779.213 1187.23C734.719 1178.82 693.695 1160.2 658.412 1131.81C657.347 1130.95 656.281 1130.09 655.213 1129.23C638.979 1116.67 624.237 1102.22 611.276 1086.29C609.312 1083.82 607.359 1081.39 605.244 1079.05C599.878 1073.24 595.25 1067.01 590.771 1060.5L589.213 1058.23C574.782 1037.37 562.396 1016.13 552.327 992.824L551.213 990.23C540.097 964.675 531.019 937.729 525.798 910.341L525.213 907.23C524.596 904.062 523.98 900.894 523.387 897.721L522.838 894.73C522.003 890.257 521.25 885.878 521.148 881.32L521.172 878.408C521.182 876.682 521.195 874.956 521.213 873.23C571.869 873.17 622.524 873.108 673.18 873.032L675.479 873.029C691.985 873.004 708.49 872.979 724.996 872.954L749.304 872.916L751.749 872.913C777.914 872.873 804.078 872.838 830.243 872.808C857.18 872.777 884.116 872.741 911.053 872.695L922.469 872.676L924.739 872.672C936.779 872.652 948.819 872.637 960.859 872.627C973.023 872.616 985.188 872.6 997.352 872.575C1003.3 872.563 1009.25 872.55 1015.2 872.547C1021.34 872.545 1027.49 872.542 1033.63 872.526C1035.87 872.519 1038.11 872.513 1040.35 872.508C1040.83 872.509 1041.31 872.51 1041.79 872.513C1042.05 872.514 1042.31 872.515 1042.56 872.517C1043.34 872.521 1044.12 872.528 1044.9 872.534H1044.9H1044.9C1053.72 872.602 1062.55 872.671 1071.2 870.72L1073.21 870.23C1100.33 865.734 1124.78 851.625 1141.81 830.031L1143.21 828.23C1154.18 814.403 1161.42 799.426 1165.71 782.294L1166.21 780.23C1171.73 758.227 1170.62 734.4 1161.67 713.382L1160.21 710.23C1154.21 696.769 1146.9 683.904 1136.49 673.328C1111 648.549 1081.58 637.572 1046.36 637.698C1044.2 637.707 1042.03 637.708 1039.87 637.702C1033.85 637.678 1027.83 637.667 1021.81 637.676C1015.25 637.685 1008.69 637.677 1002.13 637.662C990.012 637.634 977.891 637.62 965.77 637.622C953.731 637.623 941.692 637.619 929.653 637.602L927.381 637.598L921.926 637.59L915.953 637.581C889.019 637.539 862.085 637.514 835.151 637.502C808.954 637.49 782.758 637.472 756.561 637.44L754.109 637.438L744.13 637.426L736.675 637.416L729.717 637.408C713.138 637.387 696.56 637.368 679.981 637.349L677.67 637.347C627.337 637.29 577.005 637.258 526.672 637.232L523.213 637.23L523.182 635.404L523.157 632.985C523.107 629.141 523.623 625.864 524.66 622.178C525.202 620.27 525.639 618.333 526.073 616.398C528.13 607.136 530.641 598.1 533.6 589.085C534.138 587.467 534.676 585.849 535.213 584.23C550.47 537.01 576.286 491.939 608.018 453.785L610.213 451.23C615.456 445.017 621.07 439.217 626.827 433.483L628.338 431.98L629.585 430.738C634.878 425.462 640.172 420.186 645.6 415.049C697.188 367.136 764.054 337.121 835.101 339.127L838.213 339.23C871.878 340.305 904.133 349.947 934.056 365.123L936.213 366.23C957.345 377.032 976.101 391.082 990.967 409.66L992.213 411.23C996.426 416.518 1000.18 421.948 1003.47 427.852L1004.53 429.792C1006.72 433.768 1008.42 437.643 1009.7 442.007C1011 446.552 1012.48 450.994 1014.08 455.441L1015.09 458.23C1017.67 465.504 1020.54 472.434 1024.21 479.23C1038.6 504.8 1060.51 520.518 1088.3 528.675L1090.21 529.23C1092.95 530.065 1094.8 530.632 1096.7 531.001C1100.73 531.785 1104.93 531.676 1118.04 531.334C1142.49 530.158 1168 517.572 1184.59 499.917C1204.73 477.439 1212.66 449.766 1211.43 419.964C1209 389.678 1190.68 359.372 1168.21 339.605C1166.08 337.81 1163.97 336.009 1161.92 334.121C1142.35 316.045 1118.5 301.617 1094.44 290.278L1092.21 289.23C1069 278.152 1045.37 268.507 1020.77 260.937C1018.16 260.139 1015.55 259.34 1012.95 258.489C1002.71 255.058 992.423 252.631 981.854 250.441C979.071 249.864 976.321 249.259 973.576 248.522C964.551 246.07 955.417 244.8 946.163 243.553L943.276 243.167C891.441 236.197 839.086 236.124 787.427 244.852L785.213 245.23C763.406 248.947 741.945 254.041 720.733 260.296C717.635 261.218 714.537 262.137 711.429 263.026C689.036 269.372 667.449 278.084 645.994 287.054L643.213 288.23C620.13 297.983 597.638 309.598 575.984 322.194L574.213 323.23C541.755 342.146 509.702 363.915 481.303 388.539C479.077 390.481 476.839 392.409 474.592 394.328C472.174 396.392 469.759 398.46 467.35 400.535C466.305 401.434 465.26 402.333 464.213 403.23C458.945 407.654 454.055 412.348 449.213 417.23L448.828 417.62C445.867 420.615 442.919 423.598 439.78 426.41C436.507 429.179 433.516 431.913 430.713 435.167C428.942 437.257 427.165 439.279 425.244 441.234C421.98 444.442 418.78 447.65 415.776 451.105C413.946 453.231 412.11 455.345 410.233 457.429C384.921 485.323 361.31 514.979 340.651 546.5C339.431 548.369 338.209 550.236 336.975 552.095C324.792 570.412 313.198 589.314 303.639 609.144C302.359 611.83 301.076 614.513 299.777 617.19C285.072 647.412 271.787 677.951 261.053 709.816C260.206 712.337 259.357 714.849 258.42 717.338C256.642 721.933 255.153 726.567 253.766 731.295L252.901 734.292C242.359 770.752 234.465 807.152 229.864 844.826L229.526 847.605C226.821 869.512 226.028 891.139 226.028 913.205C226.028 916.1 226.028 918.994 226.018 921.888C226.013 922.804 226.009 923.719 226.004 924.635L226.004 924.652V924.652C225.904 944.37 225.803 964.267 228.752 983.798C229.857 989.627 230.719 995.516 231.501 1001.4C236.16 1037.27 245.261 1071.54 256.989 1105.68L258.213 1109.23C259.745 1113.69 261.285 1118.15 262.885 1122.58L264.213 1126.23C264.439 1126.86 264.663 1127.48 264.888 1128.11C267.243 1134.68 269.594 1141.25 272.776 1147.48C274.036 1149.89 275.227 1152.26 276.284 1154.77C278.661 1160.68 281.215 1166.46 283.935 1172.22L285.276 1175.04C287.433 1179.6 289.587 1184.13 292.076 1188.52C293.976 1191.9 294.926 1193.6 295.847 1195.31C296.768 1197.02 297.66 1198.75 299.444 1202.2C300.053 1203.37 300.662 1204.55 301.272 1205.72C301.615 1206.38 301.957 1207.04 302.301 1207.7L303.256 1209.53L305.096 1213.08C306.998 1216.75 308.744 1220.37 310.213 1224.23C308.609 1223.26 307.858 1222.81 307.216 1222.23C306.65 1221.72 306.171 1221.12 305.268 1219.98L305.203 1219.9C302.232 1216.15 299.268 1212.41 296.08 1208.84C275.478 1186.45 257.373 1161.18 241.596 1135.2L239.213 1131.23C230.187 1116.33 221.953 1101.29 214.685 1085.45L213.213 1082.23C205.362 1065.16 198.111 1047.92 191.405 1030.36L190.213 1027.23C188.081 1021.63 185.984 1016.01 183.972 1010.36L183.213 1008.23C177.927 993.575 173.964 978.583 170.06 963.515L169.213 960.23C168.209 956.346 167.222 952.459 166.272 948.562C165.675 946.096 165.062 943.636 164.436 941.177C160.693 926.488 157.195 911.853 155.19 896.816L155.078 895.936L155.078 895.935L155.078 895.934L155.078 895.934L155.077 895.933L155.077 895.932L155.077 895.931L155.077 895.93L155.077 895.929C154.701 892.969 154.326 890.01 153.9 887.057C149.82 859.316 148.769 831.916 148.831 803.922L148.838 801.292C148.852 795.384 148.875 789.476 148.921 783.568L148.94 781.203C149.032 767.809 149.494 754.471 150.859 741.137L151.088 739.042C153.727 714.668 158.296 690.818 163.701 666.917C164.445 663.639 165.184 660.361 165.906 657.078C166.007 656.614 166.108 656.151 166.209 655.688C168.199 646.561 170.172 637.508 173.311 628.683C175.02 624.037 176.64 619.364 177.924 614.582C179.109 610.032 180.365 605.646 182.151 601.292C183.225 598.711 184.242 596.146 185.147 593.5C197.756 554.729 215.686 516.757 236.764 481.874C238.553 478.948 240.339 476.02 242.105 473.079C250.975 458.285 260.298 443.917 270.32 429.877L272.213 427.23C272.64 426.63 273.066 426.03 273.492 425.43C279.169 417.437 284.844 409.448 291.053 401.855C292.273 400.372 293.491 398.887 294.698 397.394C302.314 387.948 310.046 378.705 318.213 369.73C320.43 367.309 322.644 364.889 324.79 362.404C328.505 358.094 332.348 353.968 336.366 349.938L338.588 347.73C348.61 337.742 358.758 327.846 369.416 318.535C371.522 316.704 373.616 314.867 375.69 312.999C387.689 302.069 400.095 291.785 412.989 281.926L415.213 280.23C425.374 272.468 435.674 264.923 446.18 257.635L448.213 256.23C481.895 232.932 518.468 213.785 555.686 196.832L559.213 195.23C582.283 184.747 605.849 175.56 629.872 167.512L632.213 166.73C643.56 162.924 654.928 159.534 666.548 156.651C669.417 155.952 672.262 155.216 675.1 154.398C696.256 148.23 717.831 142.852 739.713 140.042C742.609 139.723 745.459 139.396 748.306 138.768C752.789 137.717 757.154 136.928 761.74 136.496ZM341.213 716.23C352.244 687.943 367.779 661.679 384.213 636.23C384.91 637.784 385.231 638.5 385.215 639.207C385.201 639.811 384.942 640.408 384.463 641.515L383.213 644.292L381.807 647.535C377.195 658.143 373.085 668.895 369.987 680.045C369.171 682.982 368.332 685.887 367.336 688.77C364.453 697.028 362.341 705.38 360.35 713.888L359.776 716.355C355.378 735.111 351.381 753.866 348.548 772.931L348.026 776.542C344.52 800.061 343.863 823.86 343.894 847.601C343.899 850.49 343.904 853.38 343.891 856.27C343.722 883.019 345.16 909.298 349.661 935.726C349.913 937.199 350.162 938.673 350.408 940.148C351.986 949.611 353.698 959.044 355.579 968.452L356.338 972.167C357.985 980.236 359.965 988.135 362.276 996.04C363.034 998.621 363.772 1001.2 364.487 1003.8C365.062 1005.88 365.637 1007.97 366.218 1010.05C367.114 1013.26 368.01 1016.48 368.876 1019.7C373.606 1037.32 379.73 1054.4 386.905 1071.18C387.648 1072.91 388.387 1074.64 389.115 1076.38C389.797 1078.01 390.479 1079.65 391.162 1081.28L392.213 1083.79C401.296 1105.57 411.57 1126.98 422.835 1147.71L424.213 1150.23C444.489 1187.38 467.211 1223.95 494.225 1256.62C496.031 1258.8 497.825 1260.98 499.608 1263.18C504.775 1269.56 510.081 1275.81 515.444 1282.02C516.368 1283.09 517.291 1284.16 518.213 1285.23C524.466 1292.65 531.315 1299.42 538.213 1306.23L538.604 1306.62C540.714 1308.69 542.803 1310.75 544.733 1313C546.663 1315.39 548.602 1317.68 550.881 1319.74C554.841 1323.09 558.575 1326.56 562.211 1330.26C566.898 1335.03 571.548 1339.67 576.776 1343.85C580.337 1346.67 583.73 1349.57 587.046 1352.67C601.895 1366.59 618.24 1378.07 635.213 1389.23C638.944 1391.67 642.175 1393.96 645.213 1397.23C642.345 1396.77 639.85 1396.09 637.13 1395.05L633.69 1393.57C631.748 1392.74 629.809 1391.9 627.872 1391.06L625.838 1390.17C616.598 1386.15 607.433 1382.1 598.627 1377.18C596.805 1376.14 594.98 1375.1 593.142 1374.09C588.563 1371.58 583.998 1369.06 579.451 1366.49L577.213 1365.23C561.593 1356.42 546.249 1346.89 532.088 1335.85C529.212 1333.58 526.35 1331.33 523.369 1329.19C518.552 1325.79 514.056 1322.28 509.713 1318.29C507.163 1315.88 504.626 1313.56 501.884 1311.37C494.705 1305.65 488.203 1299.5 481.757 1292.98C480.586 1291.8 479.414 1290.61 478.241 1289.43C477.567 1288.75 476.892 1288.08 476.216 1287.4L474.864 1286.04C463.984 1275.12 453.064 1264.15 443.467 1252.08C442.25 1250.54 441.03 1249.01 439.791 1247.49C407.109 1207.72 381.433 1165.19 359.426 1118.79L358.213 1116.23C355.702 1110.96 353.198 1105.7 351.039 1100.28L349.862 1097.19C349.09 1095.17 348.315 1093.15 347.54 1091.13C342.523 1078.05 337.496 1064.95 333.483 1051.53C332.781 1049.14 332.065 1046.75 331.332 1044.36C326.561 1028.89 322.22 1013.39 318.892 997.536L318.213 994.23C316.376 985.298 314.791 976.348 313.506 967.32L313.213 965.23C309.775 940.76 308.843 916.369 308.839 891.689L308.838 889.542C308.815 872.973 309.028 856.509 310.705 840.01L311.213 835.23C312.721 819.344 315.303 803.927 318.811 788.355L318.942 787.781C319.552 785.126 320.161 782.471 320.736 779.808C322.719 770.577 325.346 761.587 328.321 752.628L329.463 749.23C332.923 738.915 336.424 728.62 340.341 718.467L341.213 716.23ZM1352.21 1054.94C1356.81 1054.17 1361.4 1053.41 1365.96 1052.39C1377.69 1049.57 1390.14 1048.23 1402.21 1048.23C1402.33 1049.79 1402.38 1050.53 1402.21 1051.22C1402.06 1051.85 1401.72 1052.44 1401.07 1053.56C1397.48 1059.85 1394.2 1066.22 1391.09 1072.76L1389.65 1075.79C1389.23 1076.66 1388.81 1077.52 1388.38 1078.38L1388.38 1078.38L1388.38 1078.39C1386.6 1082.01 1384.82 1085.63 1383.39 1089.39C1382.45 1092.1 1381.44 1094.64 1380.12 1097.19C1377.8 1098.87 1376.62 1099.72 1375.3 1100.23C1373.95 1100.76 1372.45 1100.94 1369.41 1101.29H1369.41C1363.76 1101.94 1358.42 1103.09 1352.92 1104.56L1349.59 1105.48C1316.38 1114.55 1284.02 1126.51 1252.8 1141.02L1250.21 1142.23C1238.01 1147.93 1225.86 1153.71 1214.05 1160.21C1212.79 1160.91 1211.52 1161.61 1210.26 1162.3C1197.14 1169.47 1184.21 1176.96 1171.28 1184.45L1168.21 1186.23L1165.53 1187.78L1160.7 1190.59L1158.4 1191.92C1151.85 1195.71 1145.29 1199.48 1138.71 1203.23L1137.68 1203.82C1133.69 1206.09 1129.71 1208.36 1125.74 1210.67C1107.16 1221.55 1088.24 1231.5 1068.71 1240.61L1065.21 1242.23C1035.08 1256.21 1003.87 1267.85 971.799 1276.6L969.213 1277.29C966.402 1278.05 963.59 1278.8 960.776 1279.55L958.213 1280.23C934.861 1286.53 911.002 1289.8 887.021 1292.66L882.213 1293.23C838.913 1298.48 793.631 1298.48 750.284 1293.69C748.244 1293.46 746.203 1293.23 744.161 1293.01C726.762 1291.16 709.696 1288.33 692.596 1284.62C681.201 1282.12 669.729 1280.08 658.213 1278.23C682.369 1297.35 713.38 1312.76 742.405 1322.94C744.458 1323.63 746.506 1324.33 748.549 1325.06C762.612 1330.1 776.644 1334.89 791.106 1338.36C806.19 1342.35 816.563 1344.77 831.205 1347.22L831.213 1347.23C876.098 1356.17 922.471 1354.82 967.548 1348.69L970.463 1348.29L971.16 1348.2L972.313 1348.04C981.813 1346.76 991.263 1345.48 1000.54 1342.97C1002.39 1342.46 1004.25 1341.97 1006.11 1341.51C1017.95 1338.66 1029.73 1335.76 1041.28 1331.89L1043.21 1331.23C1051.05 1328.58 1058.84 1325.87 1066.46 1322.67C1069.33 1321.44 1072.18 1320.24 1075.1 1319.16C1084 1315.9 1092.49 1311.9 1101.01 1307.77L1101.54 1307.51C1103.82 1306.4 1106.1 1305.29 1108.38 1304.19C1122.14 1297.58 1135.34 1289.96 1148.42 1282.11L1148.87 1281.84C1150.93 1280.6 1152.99 1279.37 1155.05 1278.14C1165.06 1272.23 1174.86 1266.04 1184.65 1259.78C1189.73 1256.54 1194.81 1253.32 1199.9 1250.1L1201.46 1249.12C1204.8 1247.02 1208.13 1244.92 1211.45 1242.8C1239.07 1225.11 1266.79 1209.26 1297.37 1197.14L1297.63 1197.03L1297.68 1197.01L1297.68 1197.01L1297.69 1197.01L1297.7 1197.01C1298.77 1196.59 1299.83 1196.17 1300.9 1195.75C1302.03 1195.3 1303.15 1194.85 1304.28 1194.4C1310.88 1191.72 1317.2 1189.54 1324.21 1188.23L1324.21 1188.23L1324.21 1188.23C1322.16 1192.74 1321.1 1195.08 1319.66 1197.16C1318.1 1199.41 1316.11 1201.36 1311.96 1205.42L1311.96 1205.42C1308.62 1209.33 1305.36 1213.29 1302.23 1217.37C1297.23 1223.89 1291.91 1229.96 1286.25 1235.91L1286.2 1235.96C1283.96 1238.31 1281.72 1240.65 1279.58 1243.1C1275.55 1247.8 1271.32 1252.25 1266.94 1256.64L1264.28 1259.29C1255.95 1267.59 1247.52 1275.76 1238.87 1283.71L1237.21 1285.23C1222.12 1299.15 1205.79 1311.74 1189.3 1323.97L1186.21 1326.23C1175.09 1334.4 1163.69 1341.86 1151.74 1348.78L1149.21 1350.23C1135.54 1358.11 1121.53 1365.2 1107.22 1371.84L1104.21 1373.23C1089.66 1379.96 1074.81 1385.32 1059.53 1390.18L1056.21 1391.23C1043.93 1395.18 1031.74 1398.83 1019.06 1401.27C1016.61 1401.74 1014.17 1402.24 1011.74 1402.8C980.281 1410.25 948.793 1412.7 916.553 1412.67L914.401 1412.67C897.625 1412.67 880.965 1412.46 864.287 1410.48L862.213 1410.23C848.677 1408.77 835.297 1406.88 821.948 1404.19C820.37 1403.87 818.792 1403.55 817.213 1403.23C794.253 1398.93 771.851 1392.94 749.994 1384.64C747.485 1383.69 744.986 1382.83 742.432 1381.98C741.753 1381.77 741.073 1381.55 740.392 1381.34C735.895 1379.92 731.4 1378.5 727.213 1376.29C724.264 1374.7 721.258 1373.43 718.131 1372.22C710.608 1369.32 703.426 1365.98 696.252 1362.3C694.24 1361.26 692.224 1360.24 690.193 1359.24C681.588 1355.06 673.257 1350.65 665.112 1345.63C663.121 1344.4 661.126 1343.18 659.113 1341.98C647.702 1335.27 636.958 1327.93 626.419 1319.92L624.213 1318.23C619.326 1314.49 614.502 1310.7 609.836 1306.69L608.151 1305.23C607.014 1304.25 605.877 1303.27 604.74 1302.29L603.488 1301.2L602.592 1300.43L601.213 1299.23C596.108 1294.87 591.22 1290.36 586.465 1285.62L584.088 1283.23C572.723 1271.82 561.654 1260.2 551.272 1247.88L548.213 1244.23C539.164 1233.53 530.635 1222.6 522.564 1211.15L521.213 1209.23C517.025 1203.37 512.959 1197.46 509.135 1191.35L507.213 1188.23C501.213 1178.61 495.813 1168.72 490.716 1158.6L489.776 1156.73C486.043 1149.36 482.578 1142.16 480.213 1134.23H482.21C486.348 1138.76 489.597 1141.7 494.278 1145.69C498.276 1149.22 502.417 1152.51 506.748 1155.7C508.555 1157.02 510.359 1158.34 512.154 1159.67C530.459 1173.28 549.546 1185.33 569.739 1195.94L572.213 1197.23C576.824 1199.64 581.456 1202 586.147 1204.25L588.213 1205.23C600.987 1211.31 613.927 1216.63 627.306 1221.24L630.213 1222.23C644.896 1227.28 659.594 1231.56 674.772 1234.86C677.936 1235.53 681.099 1236.2 684.257 1236.91C696.42 1239.61 708.6 1241.69 720.96 1243.22L723.088 1243.48C742.045 1245.84 760.976 1246.46 780.07 1246.54L783.463 1246.54C805.277 1246.59 826.647 1245.47 848.257 1242.5L850.213 1242.23C878.645 1238.46 910.96 1233.75 937.801 1223.21C939.238 1222.63 940.688 1222.07 942.16 1221.58L944.049 1221L946.236 1220.33C977.149 1210.81 1006.72 1198.65 1035.92 1184.79C1037.23 1184.17 1038.54 1183.55 1039.84 1182.93C1040.69 1182.53 1041.54 1182.13 1042.4 1181.73C1053.11 1176.69 1063.75 1171.56 1074.17 1165.94C1079.78 1162.92 1085.4 1159.92 1091.02 1156.93C1093.12 1155.82 1095.21 1154.7 1097.3 1153.58C1104.72 1149.62 1112.15 1145.73 1119.68 1141.98C1124.43 1139.62 1129.17 1137.24 1133.85 1134.73C1140.61 1131.09 1147.42 1127.58 1154.29 1124.17L1154.53 1124.05C1155.55 1123.55 1156.57 1123.04 1157.59 1122.53C1158.47 1122.1 1159.34 1121.67 1160.21 1121.23C1191.38 1105.2 1223.99 1091.36 1257.23 1080.22C1260.18 1079.24 1263.12 1078.26 1266.06 1077.25C1276.14 1073.77 1286.21 1070.56 1296.55 1067.93C1299.96 1067.07 1303.35 1066.19 1306.74 1065.21C1321.34 1060.86 1336.2 1057.65 1351.21 1055.1L1352.21 1054.94Z" fill="#0E1110"/>
</svg>
